# Blender 4.4.0
# www.blender.org
mtllib CaseForet.mtl
o Grass
v -0.660598 -0.100000 1.000000
v -1.000000 -0.100000 0.660598
v -0.748441 -0.100000 0.988435
v -0.830299 -0.100000 0.954529
v -0.900591 -0.100000 0.900591
v -0.954529 -0.100000 0.830299
v -0.988435 -0.100000 0.748441
v -1.000000 0.100000 0.660598
v -0.660598 0.100000 1.000000
v -0.988435 0.100000 0.748441
v -0.954529 0.100000 0.830299
v -0.900591 0.100000 0.900591
v -0.830299 0.100000 0.954529
v -0.748441 0.100000 0.988435
v -1.000000 -0.100000 -0.660598
v -0.660598 -0.100000 -1.000000
v -0.988435 -0.100000 -0.748441
v -0.954529 -0.100000 -0.830299
v -0.900591 -0.100000 -0.900591
v -0.830299 -0.100000 -0.954529
v -0.748441 -0.100000 -0.988435
v -0.660598 0.100000 -1.000000
v -1.000000 0.100000 -0.660598
v -0.748441 0.100000 -0.988435
v -0.830299 0.100000 -0.954529
v -0.900591 0.100000 -0.900591
v -0.954529 0.100000 -0.830299
v -0.988435 0.100000 -0.748441
v 1.000000 -0.100000 0.660598
v 0.660598 -0.100000 1.000000
v 0.988435 -0.100000 0.748441
v 0.954529 -0.100000 0.830299
v 0.900591 -0.100000 0.900591
v 0.830299 -0.100000 0.954529
v 0.748441 -0.100000 0.988435
v 0.660598 0.100000 1.000000
v 1.000000 0.100000 0.660598
v 0.748441 0.100000 0.988435
v 0.830299 0.100000 0.954529
v 0.900591 0.100000 0.900591
v 0.954529 0.100000 0.830299
v 0.988435 0.100000 0.748441
v 0.660598 -0.100000 -1.000000
v 1.000000 -0.100000 -0.660598
v 0.748441 -0.100000 -0.988435
v 0.830299 -0.100000 -0.954529
v 0.900591 -0.100000 -0.900591
v 0.954529 -0.100000 -0.830299
v 0.988435 -0.100000 -0.748441
v 1.000000 0.100000 -0.660598
v 0.660598 0.100000 -1.000000
v 0.988435 0.100000 -0.748441
v 0.954529 0.100000 -0.830299
v 0.900591 0.100000 -0.900591
v 0.830299 0.100000 -0.954529
v 0.748441 0.100000 -0.988435
vn 0.0654 -0.0000 0.9979
vn -0.0654 -0.0000 0.9979
vn 0.9979 -0.0000 -0.0654
vn 0.9979 -0.0000 0.0654
vn -0.0000 1.0000 -0.0000
vn -0.9979 -0.0000 0.0654
vn -0.9979 -0.0000 -0.0654
vn -0.0654 -0.0000 -0.9979
vn 0.0654 -0.0000 -0.9979
vn -0.2588 -0.0000 0.9659
vn -0.5000 -0.0000 0.8660
vn -0.7071 -0.0000 0.7071
vn -0.8660 -0.0000 0.5000
vn -0.9659 -0.0000 0.2588
vn -0.2588 -0.0000 -0.9659
vn -0.5000 -0.0000 -0.8660
vn -0.7071 -0.0000 -0.7071
vn -0.8660 -0.0000 -0.5000
vn -0.9659 -0.0000 -0.2588
vn 0.9659 -0.0000 -0.2588
vn 0.8660 -0.0000 -0.5000
vn 0.7071 -0.0000 -0.7071
vn 0.5000 -0.0000 -0.8660
vn 0.2588 -0.0000 -0.9659
vn 0.2588 -0.0000 0.9659
vn 0.5000 -0.0000 0.8660
vn 0.7071 -0.0000 0.7071
vn 0.8660 -0.0000 0.5000
vn 0.9659 -0.0000 0.2588
vn -0.0000 -1.0000 -0.0000
vt 0.625000 0.792425
vt 0.375000 0.957575
vt 0.375000 0.792425
vt 0.625000 0.542425
vt 0.375000 0.707575
vt 0.375000 0.542425
vt 0.625000 0.707575
vt 0.875000 0.707575
vt 0.667425 0.750000
vt 0.625000 0.042425
vt 0.375000 0.207575
vt 0.375000 0.042425
vt 0.625000 0.292425
vt 0.375000 0.457575
vt 0.375000 0.292425
vt 0.625000 0.957575
vt 0.375000 0.968555
vt 0.625000 0.968555
vt 0.375000 0.978787
vt 0.625000 0.978787
vt 0.375000 1.000000
vt 0.625000 0.000000
vt 0.375000 0.021213
vt 0.375000 0.000000
vt 0.625000 0.021213
vt 0.375000 0.031445
vt 0.625000 0.031445
vt 0.625000 0.281445
vt 0.375000 0.281445
vt 0.625000 0.271213
vt 0.375000 0.271213
vt 0.625000 0.250000
vt 0.375000 0.250000
vt 0.625000 0.228787
vt 0.375000 0.228787
vt 0.625000 0.218555
vt 0.375000 0.218555
vt 0.625000 0.207575
vt 0.625000 0.531445
vt 0.375000 0.531445
vt 0.625000 0.521213
vt 0.375000 0.521213
vt 0.625000 0.500000
vt 0.375000 0.500000
vt 0.625000 0.478787
vt 0.375000 0.478787
vt 0.625000 0.468555
vt 0.375000 0.468555
vt 0.625000 0.457575
vt 0.625000 0.781445
vt 0.375000 0.781445
vt 0.625000 0.771213
vt 0.375000 0.771213
vt 0.625000 0.750000
vt 0.375000 0.750000
vt 0.625000 0.728787
vt 0.375000 0.728787
vt 0.625000 0.718555
vt 0.375000 0.718555
vt 0.125000 0.707575
vt 0.167425 0.750000
vt 0.667425 0.500000
vt 0.626446 0.531445
vt 0.656445 0.501446
vt 0.630684 0.521213
vt 0.637426 0.512426
vt 0.646213 0.505684
vt 0.832575 0.500000
vt 0.843555 0.501446
vt 0.853787 0.505684
vt 0.862574 0.512426
vt 0.869316 0.521213
vt 0.873554 0.531445
vt 0.875000 0.542425
vt 0.873554 0.718555
vt 0.832575 0.750000
vt 0.869316 0.728787
vt 0.862574 0.737574
vt 0.853787 0.744316
vt 0.843555 0.748554
vt 0.656445 0.748554
vt 0.646213 0.744316
vt 0.637426 0.737574
vt 0.630684 0.728787
vt 0.626446 0.718555
vt 0.625000 1.000000
vt 0.125000 0.542425
vt 0.167425 0.500000
vt 0.126446 0.531445
vt 0.156445 0.501446
vt 0.130684 0.521213
vt 0.137426 0.512426
vt 0.146213 0.505684
vt 0.332575 0.500000
vt 0.343555 0.501446
vt 0.353787 0.505684
vt 0.362574 0.512426
vt 0.369316 0.521213
vt 0.373554 0.531445
vt 0.373554 0.718555
vt 0.332575 0.750000
vt 0.369316 0.728787
vt 0.362574 0.737574
vt 0.353787 0.744316
vt 0.343555 0.748554
vt 0.156445 0.748554
vt 0.146213 0.744316
vt 0.137426 0.737574
vt 0.130684 0.728787
vt 0.126446 0.718555
s 1
usemtl Grass
f 36/1/1 1/2/2 30/3/1
f 50/4/3 29/5/4 44/6/3
f 37/7/5 8/8/5 36/9/5
f 8/10/6 15/11/7 2/12/6
f 22/13/8 43/14/9 16/15/8
f 9/16/2 3/17/10 1/2/2
f 14/18/10 4/19/11 3/17/10
f 13/20/11 5/21/12 4/19/11
f 12/22/12 6/23/13 5/24/12
f 11/25/13 7/26/14 6/23/13
f 10/27/14 2/12/6 7/26/14
f 16/15/8 24/28/15 22/13/8
f 21/29/15 25/30/16 24/28/15
f 20/31/16 26/32/17 25/30/16
f 19/33/17 27/34/18 26/32/17
f 18/35/18 28/36/19 27/34/18
f 17/37/19 23/38/7 28/36/19
f 44/6/3 52/39/20 50/4/3
f 49/40/20 53/41/21 52/39/20
f 48/42/21 54/43/22 53/41/21
f 47/44/22 55/45/23 54/43/22
f 46/46/23 56/47/24 55/45/23
f 45/48/24 51/49/9 56/47/24
f 30/3/1 38/50/25 36/1/1
f 35/51/25 39/52/26 38/50/25
f 34/53/26 40/54/27 39/52/26
f 33/55/27 41/56/28 40/54/27
f 32/57/28 42/58/29 41/56/28
f 31/59/29 37/7/4 42/58/29
f 2/60/30 29/5/30 1/61/30
f 36/1/1 9/16/2 1/2/2
f 50/4/3 37/7/4 29/5/4
f 37/7/5 50/4/5 51/62/5
f 50/4/5 52/63/5 56/64/5
f 52/63/5 53/65/5 54/66/5
f 54/66/5 55/67/5 56/64/5
f 56/64/5 51/62/5 50/4/5
f 51/62/5 22/68/5 37/7/5
f 22/68/5 24/69/5 25/70/5
f 25/70/5 26/71/5 27/72/5
f 27/72/5 28/73/5 23/74/5
f 23/74/5 8/8/5 22/68/5
f 8/8/5 10/75/5 9/76/5
f 22/68/5 8/8/5 37/7/5
f 10/75/5 11/77/5 12/78/5
f 12/78/5 13/79/5 10/75/5
f 13/79/5 14/80/5 10/75/5
f 14/80/5 9/76/5 10/75/5
f 9/76/5 36/9/5 8/8/5
f 36/9/5 38/81/5 39/82/5
f 39/82/5 40/83/5 41/84/5
f 41/84/5 42/85/5 37/7/5
f 52/63/5 54/66/5 56/64/5
f 22/68/5 25/70/5 27/72/5
f 27/72/5 23/74/5 22/68/5
f 36/9/5 39/82/5 37/7/5
f 39/82/5 41/84/5 37/7/5
f 8/10/6 23/38/7 15/11/7
f 22/13/8 51/49/9 43/14/9
f 9/16/2 14/18/10 3/17/10
f 14/18/10 13/20/11 4/19/11
f 13/20/11 12/86/12 5/21/12
f 12/22/12 11/25/13 6/23/13
f 11/25/13 10/27/14 7/26/14
f 10/27/14 8/10/6 2/12/6
f 16/15/8 21/29/15 24/28/15
f 21/29/15 20/31/16 25/30/16
f 20/31/16 19/33/17 26/32/17
f 19/33/17 18/35/18 27/34/18
f 18/35/18 17/37/19 28/36/19
f 17/37/19 15/11/7 23/38/7
f 44/6/3 49/40/20 52/39/20
f 49/40/20 48/42/21 53/41/21
f 48/42/21 47/44/22 54/43/22
f 47/44/22 46/46/23 55/45/23
f 46/46/23 45/48/24 56/47/24
f 45/48/24 43/14/9 51/49/9
f 30/3/1 35/51/25 38/50/25
f 35/51/25 34/53/26 39/52/26
f 34/53/26 33/55/27 40/54/27
f 33/55/27 32/57/28 41/56/28
f 32/57/28 31/59/29 42/58/29
f 31/59/29 29/5/4 37/7/4
f 2/60/30 15/87/30 16/88/30
f 15/87/30 17/89/30 21/90/30
f 17/89/30 18/91/30 19/92/30
f 19/92/30 20/93/30 21/90/30
f 21/90/30 16/88/30 15/87/30
f 16/88/30 43/94/30 2/60/30
f 43/94/30 45/95/30 46/96/30
f 46/96/30 47/97/30 48/98/30
f 48/98/30 49/99/30 44/6/30
f 44/6/30 29/5/30 43/94/30
f 29/5/30 31/100/30 30/101/30
f 43/94/30 29/5/30 2/60/30
f 31/100/30 32/102/30 33/103/30
f 33/103/30 34/104/30 31/100/30
f 34/104/30 35/105/30 31/100/30
f 35/105/30 30/101/30 31/100/30
f 30/101/30 1/61/30 29/5/30
f 1/61/30 3/106/30 4/107/30
f 4/107/30 5/108/30 6/109/30
f 6/109/30 7/110/30 2/60/30
f 17/89/30 19/92/30 21/90/30
f 43/94/30 46/96/30 48/98/30
f 48/98/30 44/6/30 43/94/30
f 1/61/30 4/107/30 2/60/30
f 4/107/30 6/109/30 2/60/30
